# xmcd
#
# Track frame offsets: 
#        150
#        12224
#        25282
#        39897
#        53760
#        66600
#        79278
#        90890
#        105609
#        119419
#        132161
#        143136
#        154775
#        166818
#        179695
#        193658
#        207108
#        220783
#        234313
#        248875
#        263306
#        276908
#        290763
#        304834
#
# Disc length: 4250 seconds
#
# Revision: 1
# Processed by: cddbd v1.5.2PL0 Copyright (c) Steve Scherf et al.
# Submitted via: ExactAudioCopy v1.0b3
#
DISCID=51109818
DTITLE=Various Artist - Hokum Blues
DYEAR=2008
DGENRE=Blues
TTITLE0=West Indies Blues - Ukulele Bob Williams
TTITLE1=Go Long Mule - Ukulele Bob Williams
TTITLE2=Meddlin` With The Blues - The Two Of Spades
TTITLE3=Harmonica Blues - The Two Of Spades
TTITLE4=No Home Blues - Louise Ross
TTITLE5=Can`t Fool Me Blues - Louise Ross
TTITLE6=Sweet Georgia Brown - Danny Small And Ukulele Mays
TTITLE7=Loud Speaking Papa - Danny Small And Ukulele Mays
TTITLE8=Sweet Man - Danny Small And Ukulele Mays
TTITLE9=Cecilia - Danny Small And Ukulele Mays
TTITLE10=Pebble Blues - The Pebbles
TTITLE11=Can`t Sleep Blues - The Pebbles
TTITLE12=Who`s You Tellin?` - The Pebbles
TTITLE13=I Mean, It`s Just Too Bad - The Pebbles
TTITLE14=Hot Pebble Blues - The Pebbles
TTITLE15=Deep Henderson - The Pebbles
TTITLE16=Lone Grave - Kiki Johnson
TTITLE17=Look What A Hole I`m In - Kiki Johnson
TTITLE18=Lady, Your Clock Ain`t Right - Kiki Johnson
TTITLE19=Wrong Woman Blues - Kiki Johnson
TTITLE20=How You Get That Way- Feathers And Frogs
TTITLE21=Sweet Black Dog- Feathers And Frogs
TTITLE22=Fishy Little Thing - Swan And Lee
TTITLE23=It Sure Is Nice - Swan And Lee
EXTD=
EXTT0=
EXTT1=
EXTT2=
EXTT3=
EXTT4=
EXTT5=
EXTT6=
EXTT7=
EXTT8=
EXTT9=
EXTT10=
EXTT11=
EXTT12=
EXTT13=
EXTT14=
EXTT15=
EXTT16=
EXTT17=
EXTT18=
EXTT19=
EXTT20=
EXTT21=
EXTT22=
EXTT23=
PLAYORDER=
